<?xml version="1.0" encoding="UTF-8"?>
<!DOCTYPE svg PUBLIC "-//W3C//DTD SVG 1.1//EN" "http://www.w3.org/Graphics/SVG/1.1/DTD/svg11.dtd">
<svg xmlns="http://www.w3.org/2000/svg" version="1.1" width="72px" height="62px" style="shape-rendering:geometricPrecision; text-rendering:geometricPrecision; image-rendering:optimizeQuality; fill-rule:evenodd; clip-rule:evenodd" xmlns:xlink="http://www.w3.org/1999/xlink">
<g><path style="opacity:1" fill="#fcfcfc" d="M -0.5,-0.5 C 23.5,-0.5 47.5,-0.5 71.5,-0.5C 71.5,20.1667 71.5,40.8333 71.5,61.5C 47.5,61.5 23.5,61.5 -0.5,61.5C -0.5,40.8333 -0.5,20.1667 -0.5,-0.5 Z"/></g>
<g><path style="opacity:1" fill="#97d19d" d="M 36.5,1.5 C 39.7568,2.46171 42.7568,3.96171 45.5,6C 41.7399,9.71628 38.5733,9.21628 36,4.5C 35.5304,3.42317 35.6971,2.42317 36.5,1.5 Z"/></g>
<g><path style="opacity:1" fill="#96d09b" d="M 29.5,5.5 C 32.2723,5.5952 34.2723,6.92853 35.5,9.5C 31.1081,12.0773 26.4414,14.0773 21.5,15.5C 19.5595,15.1964 17.8928,14.3631 16.5,13C 20.8961,10.4731 25.2295,7.97312 29.5,5.5 Z"/></g>
<g><path style="opacity:1" fill="#96d09c" d="M 47.5,7.5 C 55.3489,9.51772 55.3489,11.8511 47.5,14.5C 40.9875,11.8707 40.9875,9.53742 47.5,7.5 Z"/></g>
<g><path style="opacity:1" fill="#95d09a" d="M 36.5,11.5 C 39.4073,12.7341 41.7407,14.7341 43.5,17.5C 40.4394,20.7839 36.7728,22.2839 32.5,22C 29.8333,20.3333 27.1667,18.6667 24.5,17C 28.71,15.3914 32.71,13.5581 36.5,11.5 Z"/></g>
<g><path style="opacity:1" fill="#96d09b" d="M 55.5,11.5 C 60.265,13.3815 64.9317,15.5482 69.5,18C 65.8333,20.5 62.1667,23 58.5,25.5C 54.7261,23.2294 51.3928,20.3961 48.5,17C 51.02,15.3029 53.3533,13.4695 55.5,11.5 Z"/></g>
<g><path style="opacity:1" fill="#99d19e" d="M 6.5,17.5 C 8.9892,17.2978 11.3225,17.7978 13.5,19C 12,19.5 10.5,20 9,20.5C 7.25089,20.2517 6.41755,19.2517 6.5,17.5 Z"/></g>
<g><path style="opacity:1" fill="#95d09a" d="M 44.5,19.5 C 48.2347,21.7246 51.568,24.558 54.5,28C 52.99,28.8498 51.49,29.6831 50,30.5C 45.7771,28.9732 41.9438,26.8066 38.5,24C 40.6838,22.6366 42.6838,21.1366 44.5,19.5 Z"/></g>
<g><path style="opacity:1" fill="#97d19c" d="M 13.5,20.5 C 19.1258,21.8084 24.4591,23.9751 29.5,27C 28.1832,28.6591 26.5165,29.8257 24.5,30.5C 20.0316,27.8633 15.6983,25.03 11.5,22C 12.4158,21.7216 13.0825,21.2216 13.5,20.5 Z"/></g>
<g><path style="opacity:1" fill="#f38485" d="M 61.5,26.5 C 64.0163,26.7553 66.3496,27.5886 68.5,29C 58.3023,36.0297 47.9689,42.863 37.5,49.5C 27.1667,43 16.8333,36.5 6.5,30C 8.78283,27.81 11.4495,27.1433 14.5,28C 22.0333,33.031 29.7,37.8643 37.5,42.5C 45.9096,37.6394 53.9096,32.3061 61.5,26.5 Z"/></g>
<g><path style="opacity:1" fill="#96d09b" d="M 30.5,28.5 C 34.3996,29.8699 38.233,31.5365 42,33.5C 43.2575,33.8499 43.5908,34.5165 43,35.5C 40.5523,38.5452 37.719,39.0452 34.5,37C 31.7644,35.6378 29.4311,33.8044 27.5,31.5C 28.7701,30.7124 29.7701,29.7124 30.5,28.5 Z"/></g>
<g><path style="opacity:1" fill="#9faad6" d="M 11.5,37.5 C 20.1387,42.8223 28.8054,48.1556 37.5,53.5C 45.6345,48.5304 53.6345,43.3637 61.5,38C 64.212,37.2619 66.5453,37.9286 68.5,40C 58.3023,47.0297 47.9689,53.863 37.5,60.5C 27.2051,54.1923 17.2051,47.5256 7.5,40.5C 8.9014,39.4793 10.2347,38.4793 11.5,37.5 Z"/></g>
</svg>
