<?xml version="1.0" standalone="no"?>
<!DOCTYPE svg PUBLIC "-//W3C//DTD SVG 20010904//EN"
 "http://www.w3.org/TR/2001/REC-SVG-20010904/DTD/svg10.dtd">
<svg version="1.0" xmlns="http://www.w3.org/2000/svg"
 width="2082.000000pt" height="1147.000000pt" viewBox="0 0 2082.000000 1147.000000"
 preserveAspectRatio="xMidYMid meet">

<g transform="translate(0.000000,1147.000000) scale(0.100000,-0.100000)"
fill="#000000" stroke="none">
<path d="M4402 10713 c3 -210 4 -218 23 -218 19 0 20 8 23 218 l2 217 -25 0
-25 0 2 -217z"/>
<path d="M5530 10845 l0 -85 -32 20 c-100 61 -190 -31 -172 -173 13 -99 93
-145 171 -97 32 19 32 19 38 -1 4 -12 14 -19 23 -17 15 3 17 27 20 221 l2 217
-25 0 c-25 0 -25 -1 -25 -85z m-26 -116 c23 -18 26 -27 26 -84 0 -57 -3 -66
-27 -85 -18 -14 -38 -20 -62 -18 -44 4 -61 32 -61 104 0 92 61 133 124 83z"/>
<path d="M8150 10845 l0 -85 -32 20 c-100 61 -190 -31 -172 -173 13 -99 93
-145 171 -97 32 19 32 19 38 -1 4 -12 14 -19 23 -17 15 3 17 27 20 221 l2 217
-25 0 c-25 0 -25 -1 -25 -85z m-26 -116 c23 -18 26 -27 26 -84 0 -57 -3 -66
-27 -85 -18 -14 -38 -20 -62 -18 -44 4 -61 32 -61 104 0 92 61 133 124 83z"/>
<path d="M11842 10713 c3 -210 4 -218 23 -218 19 0 20 8 23 218 l2 217 -25 0
-25 0 2 -217z"/>
<path d="M13500 10908 c-11 -12 -23 -43 -26 -70 -5 -36 -11 -48 -24 -48 -9 0
-19 -3 -23 -6 -11 -11 5 -34 24 -34 17 0 19 -11 21 -127 l3 -128 25 0 25 0 3
127 3 127 32 3 c21 2 33 9 35 21 3 14 -4 17 -32 17 -35 0 -36 1 -36 39 0 46
19 66 55 57 22 -6 25 -3 25 19 0 23 -4 25 -45 25 -33 0 -50 -6 -65 -22z"/>
<path d="M14692 10713 c3 -210 4 -218 23 -218 18 0 20 8 23 101 2 95 5 104 29
128 30 30 74 34 94 10 9 -11 16 -55 19 -128 5 -103 7 -111 25 -111 19 0 20 7
20 127 0 119 -1 129 -23 150 -29 29 -100 32 -129 6 -11 -10 -23 -18 -26 -18
-4 0 -7 38 -7 85 0 84 0 85 -25 85 l-25 0 2 -217z"/>
<path d="M15372 10713 c3 -201 4 -218 21 -221 12 -2 20 4 24 16 5 20 5 20 39
0 73 -43 156 4 169 96 10 65 -3 123 -35 160 -24 26 -36 31 -73 31 -29 0 -52
-6 -64 -17 -11 -10 -23 -18 -26 -18 -4 0 -7 38 -7 85 0 84 0 85 -25 85 l-25 0
2 -217z m182 15 c10 -14 16 -44 16 -83 0 -76 -18 -105 -64 -105 -19 0 -45 9
-60 21 -23 18 -26 28 -26 77 0 47 4 60 27 84 34 36 85 38 107 6z"/>
<path d="M6704 10896 c-10 -26 4 -46 31 -46 23 0 26 4 23 28 -3 31 -44 45 -54
18z"/>
<path d="M12497 10896 c-11 -28 4 -47 32 -44 20 2 26 8 26 28 0 20 -6 26 -26
28 -17 2 -29 -3 -32 -12z"/>
<path d="M14471 10900 c-100 -23 -157 -139 -131 -265 25 -119 127 -174 239
-129 38 15 59 43 47 63 -3 5 -23 0 -43 -10 -104 -53 -193 11 -193 138 0 26 9
67 20 91 31 69 109 89 179 45 19 -12 25 -13 32 -2 25 41 -73 86 -150 69z"/>
<path d="M16557 10896 c-11 -28 4 -47 32 -44 20 2 26 8 26 28 0 20 -6 26 -26
28 -17 2 -29 -3 -32 -12z"/>
<path d="M17377 10896 c-11 -28 4 -47 32 -44 20 2 26 8 26 28 0 20 -6 26 -26
28 -17 2 -29 -3 -32 -12z"/>
<path d="M2938 10713 c-37 -103 -69 -195 -70 -203 -2 -10 5 -15 22 -15 21 0
28 8 44 53 l19 53 85 -3 86 -3 15 -47 c9 -30 22 -50 34 -54 44 -14 40 13 -31
208 l-70 193 -33 3 -34 3 -67 -188z m128 45 c15 -46 29 -89 32 -95 3 -10 -13
-13 -63 -13 -50 0 -66 3 -63 13 3 6 17 49 32 95 15 45 29 82 31 82 2 0 16 -37
31 -82z"/>
<path d="M5832 10698 c3 -195 4 -203 23 -203 18 0 20 8 23 78 l3 77 45 0 c87
0 144 51 144 129 0 87 -47 121 -165 121 l-75 0 2 -202z m154 144 c21 -14 36
-54 29 -80 -11 -46 -33 -62 -87 -62 l-48 0 0 75 0 75 48 0 c26 0 52 -4 58 -8z"/>
<path d="M8472 10698 c3 -195 4 -203 23 -203 18 0 20 8 23 93 l3 92 89 0 89 0
3 -92 c3 -92 3 -93 28 -93 l25 0 3 203 2 203 -27 -3 c-28 -3 -28 -4 -31 -85
l-3 -83 -89 0 -90 0 0 85 c0 84 0 85 -25 85 l-25 0 2 -202z"/>
<path d="M10512 10698 c3 -195 4 -203 23 -203 18 0 20 8 23 78 l3 77 45 0 c87
0 144 51 144 129 0 87 -47 121 -165 121 l-75 0 2 -202z m154 144 c21 -14 36
-54 29 -80 -11 -46 -33 -62 -87 -62 l-48 0 0 75 0 75 48 0 c26 0 52 -4 58 -8z"/>
<path d="M16180 10702 c0 -232 -7 -219 108 -207 81 9 109 19 145 53 59 57 72
202 24 273 -37 55 -79 73 -184 77 l-93 4 0 -200z m199 123 c16 -14 35 -42 42
-62 14 -45 6 -136 -16 -170 -21 -32 -72 -53 -130 -53 l-45 0 0 155 0 155 59 0
c49 0 65 -4 90 -25z"/>
<path d="M3557 10863 c-4 -3 -7 -21 -7 -40 0 -29 -3 -33 -26 -33 -33 0 -30
-33 4 -38 21 -3 22 -8 22 -91 0 -133 20 -171 87 -171 59 0 73 47 16 52 -45 4
-51 18 -52 130 l-1 77 42 3 c31 2 44 8 46 20 3 13 -6 17 -40 20 -42 3 -43 4
-46 41 -2 28 -8 37 -21 37 -10 0 -21 -3 -24 -7z"/>
<path d="M7457 10863 c-4 -3 -7 -21 -7 -40 0 -29 -3 -33 -26 -33 -33 0 -30
-33 4 -38 21 -3 22 -8 22 -91 0 -133 20 -171 87 -171 59 0 73 47 16 52 -45 4
-51 18 -52 130 l-1 77 42 3 c31 2 44 8 46 20 3 13 -6 17 -40 20 -42 3 -43 4
-46 41 -2 28 -8 37 -21 37 -10 0 -21 -3 -24 -7z"/>
<path d="M12307 10863 c-4 -3 -7 -21 -7 -40 0 -29 -3 -33 -26 -33 -33 0 -30
-33 4 -38 21 -3 22 -8 22 -91 0 -133 20 -171 87 -171 59 0 73 47 16 52 -45 4
-51 18 -52 130 l-1 77 42 3 c31 2 44 8 46 20 3 13 -6 17 -40 20 -42 3 -43 4
-46 41 -2 28 -8 37 -21 37 -10 0 -21 -3 -24 -7z"/>
<path d="M16967 10863 c-4 -3 -7 -21 -7 -40 0 -29 -3 -33 -26 -33 -33 0 -30
-33 4 -38 21 -3 22 -8 22 -91 0 -133 20 -171 87 -171 59 0 73 47 16 52 -45 4
-51 18 -52 130 l-1 77 42 3 c31 2 44 8 46 20 3 13 -6 17 -40 20 -42 3 -43 4
-46 41 -2 28 -8 37 -21 37 -10 0 -21 -3 -24 -7z"/>
<path d="M17817 10863 c-4 -3 -7 -21 -7 -40 0 -29 -3 -33 -26 -33 -33 0 -30
-33 4 -38 21 -3 22 -8 22 -91 0 -133 20 -171 87 -171 59 0 73 47 16 52 -45 4
-51 18 -52 130 l-1 77 42 3 c31 2 44 8 46 20 3 13 -6 17 -40 20 -42 3 -43 4
-46 41 -2 28 -8 37 -21 37 -10 0 -21 -3 -24 -7z"/>
<path d="M3321 10783 c-79 -39 -96 -198 -27 -262 51 -48 176 -31 176 23 0 30
-7 32 -34 11 -32 -24 -93 -19 -111 8 -29 44 -19 159 15 177 27 15 73 12 96 -5
27 -21 34 -19 34 11 0 19 -8 28 -35 40 -44 18 -72 18 -114 -3z"/>
<path d="M3763 10793 c-9 -3 -13 -36 -13 -116 0 -93 3 -117 20 -144 26 -44 80
-54 131 -26 37 20 37 20 42 1 4 -13 12 -18 24 -16 16 3 18 17 21 147 3 146 -2
167 -35 154 -10 -4 -13 -31 -13 -108 0 -100 -1 -104 -26 -124 -35 -28 -79 -27
-98 1 -12 17 -16 48 -16 124 0 102 -6 118 -37 107z"/>
<path d="M4133 10789 c-34 -10 -61 -43 -43 -54 5 -3 19 -1 30 5 11 6 39 12 61
13 45 2 69 -19 69 -60 0 -20 -5 -23 -40 -23 -86 0 -148 -50 -135 -109 14 -64
89 -90 152 -52 31 19 31 19 36 -1 3 -11 12 -18 19 -16 10 3 14 36 16 125 2
114 1 123 -21 148 -26 31 -89 41 -144 24z m117 -188 c0 -51 -75 -92 -108 -59
-18 18 -15 65 6 77 9 6 36 11 60 11 40 0 42 -1 42 -29z"/>
<path d="M4733 10789 c-34 -10 -61 -43 -43 -54 5 -3 19 -1 30 5 11 6 39 12 61
13 45 2 69 -19 69 -60 0 -20 -5 -23 -40 -23 -86 0 -148 -50 -135 -109 14 -64
89 -90 152 -52 31 19 31 19 36 -1 3 -11 12 -18 19 -16 10 3 14 36 16 125 2
114 1 123 -21 148 -26 31 -89 41 -144 24z m117 -188 c0 -51 -75 -92 -108 -59
-18 18 -15 65 6 77 9 6 36 11 60 11 40 0 42 -1 42 -29z"/>
<path d="M5011 10791 c-8 -5 -11 -49 -9 -152 3 -136 4 -144 23 -144 18 0 20 8
23 101 2 95 5 104 29 128 30 30 74 34 94 10 9 -11 16 -55 19 -128 5 -103 7
-111 25 -111 19 0 20 7 20 126 0 110 -2 130 -19 148 -29 32 -79 37 -126 12
-30 -16 -40 -17 -40 -7 0 17 -23 27 -39 17z"/>
<path d="M6161 10791 c-8 -5 -11 -49 -9 -152 3 -136 4 -144 23 -144 18 0 20 8
25 102 4 91 8 104 30 128 18 19 32 25 52 23 31 -5 45 16 27 38 -18 22 -57 17
-84 -11 -22 -21 -25 -22 -25 -6 0 21 -21 33 -39 22z"/>
<path d="M6421 10782 c-57 -29 -76 -63 -76 -141 0 -79 19 -115 70 -137 73 -30
153 -6 187 57 25 47 24 134 -2 177 -35 58 -115 77 -179 44z m124 -56 c42 -64
25 -158 -31 -182 -31 -13 -39 -13 -68 1 -37 18 -46 37 -46 106 0 67 28 99 85
99 36 0 48 -5 60 -24z"/>
<path d="M6717 10793 c-4 -3 -7 -75 -7 -159 0 -173 -7 -204 -45 -204 -22 0
-26 -4 -23 -22 4 -33 48 -36 84 -4 l29 24 3 178 c3 138 0 179 -10 185 -16 11
-23 11 -31 2z"/>
<path d="M6914 10790 c-36 -14 -72 -67 -80 -116 -13 -90 30 -166 101 -180 49
-9 125 6 139 28 16 26 4 30 -53 17 -79 -17 -131 11 -131 70 0 20 6 21 84 21
104 0 116 4 116 41 0 91 -92 153 -176 119z m103 -53 c6 -7 15 -24 18 -39 l7
-28 -76 0 c-81 0 -89 6 -65 51 20 38 85 46 116 16z"/>
<path d="M7221 10783 c-79 -39 -96 -198 -27 -262 51 -48 176 -31 176 23 0 30
-7 32 -34 11 -32 -24 -93 -19 -111 8 -29 44 -19 159 15 177 27 15 73 12 96 -5
27 -21 34 -19 34 11 0 19 -8 28 -35 40 -44 18 -72 18 -114 -3z"/>
<path d="M7704 10790 c-36 -14 -72 -67 -80 -116 -13 -90 30 -166 101 -180 49
-9 125 6 139 28 16 26 4 30 -53 17 -79 -17 -131 11 -131 70 0 20 6 21 84 21
104 0 116 4 116 41 0 91 -92 153 -176 119z m103 -53 c6 -7 15 -24 18 -39 l7
-28 -76 0 c-81 0 -89 6 -65 51 20 38 85 46 116 16z"/>
<path d="M8873 10793 c-9 -3 -13 -36 -13 -116 0 -93 3 -117 20 -144 26 -44 80
-54 131 -26 37 20 37 20 42 1 4 -13 12 -18 24 -16 16 3 18 17 21 147 3 146 -2
167 -35 154 -10 -4 -13 -31 -13 -108 0 -100 -1 -104 -26 -124 -35 -28 -79 -27
-98 1 -12 17 -16 48 -16 124 0 102 -6 118 -37 107z"/>
<path d="M9211 10791 c-8 -5 -11 -49 -9 -152 3 -136 4 -144 23 -144 18 0 20 8
23 101 2 95 5 104 29 128 31 32 78 35 93 7 5 -11 10 -67 10 -126 0 -85 3 -107
15 -111 34 -13 45 15 45 115 0 89 2 99 23 119 26 24 66 29 85 10 8 -8 12 -49
12 -119 0 -112 10 -139 46 -125 14 5 16 23 13 127 l-4 121 -34 30 c-28 25 -39
29 -69 24 -19 -3 -45 -15 -58 -27 l-23 -22 -31 27 c-38 31 -63 33 -113 6 -29
-16 -37 -17 -37 -6 0 17 -23 27 -39 17z"/>
<path d="M9753 10789 c-34 -10 -61 -43 -43 -54 5 -3 19 -1 30 5 11 6 39 12 61
13 45 2 69 -19 69 -60 0 -20 -5 -23 -40 -23 -86 0 -148 -50 -135 -109 14 -64
89 -90 152 -52 31 19 31 19 36 -1 3 -11 12 -18 19 -16 10 3 14 36 16 125 2
114 1 123 -21 148 -26 31 -89 41 -144 24z m117 -188 c0 -51 -75 -92 -108 -59
-18 18 -15 65 6 77 9 6 36 11 60 11 40 0 42 -1 42 -29z"/>
<path d="M10031 10791 c-8 -5 -11 -49 -9 -152 3 -136 4 -144 23 -144 18 0 20
8 23 101 2 95 5 104 29 128 30 30 74 34 94 10 9 -11 16 -55 19 -128 5 -103 7
-111 25 -111 19 0 20 7 20 126 0 110 -2 130 -19 148 -29 32 -79 37 -126 12
-30 -16 -40 -17 -40 -7 0 17 -23 27 -39 17z"/>
<path d="M10881 10782 c-57 -29 -76 -63 -76 -141 0 -79 19 -115 70 -137 73
-30 153 -6 187 57 25 47 24 134 -2 177 -35 58 -115 77 -179 44z m124 -56 c42
-64 25 -158 -31 -182 -31 -13 -39 -13 -68 1 -37 18 -46 37 -46 106 0 67 28 99
85 99 36 0 48 -5 60 -24z"/>
<path d="M11171 10791 c-8 -5 -11 -62 -9 -207 3 -198 3 -199 26 -202 21 -3 22
0 22 72 l0 75 35 -21 c74 -43 157 4 170 96 11 70 -3 126 -40 163 -39 39 -73
42 -128 13 -29 -16 -37 -17 -37 -6 0 17 -23 27 -39 17z m173 -63 c19 -27 21
-122 3 -158 -17 -34 -73 -39 -110 -10 -24 19 -27 29 -27 78 0 47 4 60 27 84
34 36 85 38 107 6z"/>
<path d="M11513 10793 c-9 -3 -13 -36 -13 -116 0 -93 3 -117 20 -144 26 -44
80 -54 131 -26 37 20 37 20 42 1 4 -13 12 -18 24 -16 16 3 18 17 21 147 3 146
-2 167 -35 154 -10 -4 -13 -31 -13 -108 0 -100 -1 -104 -26 -124 -35 -28 -79
-27 -98 1 -12 17 -16 48 -16 124 0 102 -6 118 -37 107z"/>
<path d="M12033 10789 c-34 -10 -61 -43 -43 -54 5 -3 19 -1 30 5 11 6 39 12
61 13 45 2 69 -19 69 -60 0 -20 -5 -23 -40 -23 -86 0 -148 -50 -135 -109 14
-64 89 -90 152 -52 31 19 31 19 36 -1 3 -11 12 -18 19 -16 10 3 14 36 16 125
2 114 1 123 -21 148 -26 31 -89 41 -144 24z m117 -188 c0 -51 -75 -92 -108
-59 -18 18 -15 65 6 77 9 6 36 11 60 11 40 0 42 -1 42 -29z"/>
<path d="M12511 10791 c-8 -5 -11 -49 -9 -152 3 -136 4 -144 23 -144 19 0 20
8 23 146 2 117 0 148 -11 152 -8 3 -19 2 -26 -2z"/>
<path d="M12711 10782 c-57 -29 -76 -63 -76 -141 0 -79 19 -115 70 -137 73
-30 153 -6 187 57 25 47 24 134 -2 177 -35 58 -115 77 -179 44z m124 -56 c42
-64 25 -158 -31 -182 -31 -13 -39 -13 -68 1 -37 18 -46 37 -46 106 0 67 28 99
85 99 36 0 48 -5 60 -24z"/>
<path d="M13001 10791 c-8 -5 -11 -49 -9 -152 3 -136 4 -144 23 -144 18 0 20
8 23 101 2 95 5 104 29 128 30 30 74 34 94 10 9 -11 16 -55 19 -128 5 -103 7
-111 25 -111 19 0 20 7 20 126 0 110 -2 130 -19 148 -29 32 -79 37 -126 12
-30 -16 -40 -17 -40 -7 0 17 -23 27 -39 17z"/>
<path d="M13711 10782 c-57 -29 -76 -63 -76 -141 0 -79 19 -115 70 -137 73
-30 153 -6 187 57 25 47 24 134 -2 177 -35 58 -115 77 -179 44z m124 -56 c42
-64 25 -158 -31 -182 -31 -13 -39 -13 -68 1 -37 18 -46 37 -46 106 0 67 28 99
85 99 36 0 48 -5 60 -24z"/>
<path d="M14001 10791 c-8 -5 -11 -49 -9 -152 3 -136 4 -144 23 -144 18 0 20
8 25 102 4 91 8 104 30 128 18 19 32 25 52 23 31 -5 45 16 27 38 -18 22 -57
17 -84 -11 -22 -21 -25 -22 -25 -6 0 21 -21 33 -39 22z"/>
<path d="M15091 10782 c-57 -29 -76 -63 -76 -141 0 -79 19 -115 70 -137 73
-30 153 -6 187 57 25 47 24 134 -2 177 -35 58 -115 77 -179 44z m124 -56 c42
-64 25 -158 -31 -182 -31 -13 -39 -13 -68 1 -37 18 -46 37 -46 106 0 67 28 99
85 99 36 0 48 -5 60 -24z"/>
<path d="M15774 10790 c-36 -14 -72 -67 -80 -116 -13 -90 30 -166 101 -180 49
-9 125 6 139 28 16 26 4 30 -53 17 -79 -17 -131 11 -131 70 0 20 6 21 84 21
104 0 116 4 116 41 0 91 -92 153 -176 119z m103 -53 c6 -7 15 -24 18 -39 l7
-28 -76 0 c-81 0 -89 6 -65 51 20 38 85 46 116 16z"/>
<path d="M16571 10791 c-8 -5 -11 -49 -9 -152 3 -136 4 -144 23 -144 19 0 20
8 23 146 2 117 0 148 -11 152 -8 3 -19 2 -26 -2z"/>
<path d="M16745 10788 c-30 -16 -45 -39 -45 -69 0 -46 10 -59 70 -89 66 -33
78 -52 50 -80 -24 -24 -48 -25 -95 -6 -34 15 -35 14 -35 -9 0 -17 8 -26 31
-34 72 -25 139 -3 158 50 16 47 -3 79 -71 113 -44 22 -58 35 -58 51 0 43 39
54 103 30 13 -6 17 -2 17 14 0 36 -80 54 -125 29z"/>
<path d="M17171 10791 c-8 -5 -11 -49 -9 -152 3 -136 4 -144 23 -144 18 0 20
8 25 102 4 91 8 104 30 128 18 19 32 25 52 23 31 -5 45 16 27 38 -18 22 -57
17 -84 -11 -22 -21 -25 -22 -25 -6 0 21 -21 33 -39 22z"/>
<path d="M17391 10791 c-8 -5 -11 -49 -9 -152 3 -136 4 -144 23 -144 19 0 20
8 23 146 2 117 0 148 -11 152 -8 3 -19 2 -26 -2z"/>
<path d="M17581 10783 c-79 -39 -96 -198 -27 -262 51 -48 176 -31 176 23 0 30
-7 32 -34 11 -32 -24 -93 -19 -111 8 -29 44 -19 159 15 177 27 15 73 12 96 -5
27 -21 34 -19 34 11 0 19 -8 28 -35 40 -44 18 -72 18 -114 -3z"/>
<path d="M8930 10120 c-67 -131 -68 -338 -3 -476 12 -25 23 -34 41 -34 19 0
23 4 17 18 -40 94 -49 142 -49 257 0 105 3 129 26 192 14 40 23 74 20 78 -14
14 -33 1 -52 -35z"/>
<path d="M11825 10143 c44 -116 49 -140 49 -258 -1 -115 -10 -164 -49 -257 -6
-14 -2 -18 18 -18 22 0 29 8 45 53 34 91 43 135 43 220 -1 132 -49 277 -92
277 -16 0 -19 -4 -14 -17z"/>
<path d="M9130 10118 c-44 -12 -60 -25 -60 -49 0 -19 24 -26 34 -10 12 18 77
23 102 6 58 -38 31 -119 -76 -229 -74 -77 -88 -111 -47 -121 12 -3 67 -5 122
-3 95 3 100 4 103 26 3 21 1 22 -88 22 l-92 0 54 60 c85 97 108 137 108 190 0
54 -20 87 -66 106 -38 16 -45 16 -94 2z"/>
<path d="M9467 10120 c-68 -21 -99 -85 -99 -206 0 -137 31 -192 115 -201 106
-12 158 55 158 205 0 99 -18 161 -55 186 -31 19 -84 27 -119 16z m96 -72 c25
-33 35 -153 18 -215 -16 -59 -35 -75 -85 -71 -34 2 -43 8 -54 32 -33 67 -27
215 10 261 28 35 82 32 111 -7z"/>
<path d="M10610 10118 c-44 -12 -60 -25 -60 -49 0 -19 24 -26 34 -10 12 18 77
23 102 6 58 -38 31 -119 -76 -229 -74 -77 -88 -111 -47 -121 12 -3 67 -5 122
-3 95 3 100 4 103 26 3 21 1 22 -88 22 l-92 0 54 60 c85 97 108 137 108 190 0
54 -20 87 -66 106 -38 16 -45 16 -94 2z"/>
<path d="M10947 10120 c-68 -21 -99 -85 -99 -206 0 -137 31 -192 115 -201 106
-12 158 55 158 205 0 99 -18 161 -55 186 -31 19 -84 27 -119 16z m96 -72 c25
-33 35 -153 18 -215 -16 -59 -35 -75 -85 -71 -34 2 -43 8 -54 32 -33 67 -27
215 10 261 28 35 82 32 111 -7z"/>
<path d="M11253 10120 c-41 -9 -63 -27 -63 -51 0 -22 7 -23 40 -4 57 33 120 8
120 -46 0 -42 -23 -62 -76 -68 -41 -5 -50 -10 -52 -28 -3 -21 1 -23 46 -23 65
0 102 -27 102 -75 0 -24 -7 -39 -22 -49 -26 -18 -100 -21 -129 -5 -30 16 -53
4 -40 -20 21 -38 114 -53 174 -27 45 19 68 48 74 95 5 35 2 44 -25 71 -17 16
-39 30 -48 30 -14 0 -11 7 14 28 63 53 51 137 -23 168 -38 15 -44 16 -92 4z"/>
<path d="M9768 10088 c-29 -19 -48 -38 -48 -49 0 -24 2 -24 50 1 l40 20 0
-150 0 -150 -46 0 c-41 0 -45 -2 -42 -22 3 -22 7 -23 113 -23 106 0 110 1 113
23 3 20 -1 22 -37 22 l-41 0 0 180 0 180 -27 -1 c-16 0 -49 -14 -75 -31z"/>
<path d="M10088 10088 c-29 -19 -48 -38 -48 -49 0 -24 2 -24 50 1 l40 20 0
-150 0 -150 -46 0 c-41 0 -45 -2 -42 -22 3 -22 7 -23 113 -23 106 0 110 1 113
23 3 20 -1 22 -37 22 l-41 0 0 180 0 180 -27 -1 c-16 0 -49 -14 -75 -31z"/>
<path d="M11516 10104 c-9 -24 -7 -157 3 -172 5 -9 31 -14 69 -15 75 -2 102
-23 102 -77 0 -26 -7 -43 -24 -59 -22 -21 -32 -23 -83 -19 -32 3 -64 7 -72 9
-8 2 -17 -4 -19 -14 -2 -12 7 -22 32 -32 50 -21 105 -19 156 8 36 17 48 30 59
64 32 91 -22 163 -120 163 l-49 0 0 55 0 55 75 0 c73 0 75 1 75 25 0 25 0 25
-99 25 -81 0 -100 -3 -105 -16z"/>
<path d="M10332 9888 c-22 -27 2 -39 74 -36 61 3 69 5 69 23 0 18 -8 20 -66
23 -45 2 -69 -1 -77 -10z"/>
<path d="M1325 9097 c-25 -19 -11 -41 16 -26 11 5 32 9 47 7 23 -3 27 -8 30
-40 3 -33 -3 -44 -52 -97 -77 -84 -75 -91 24 -91 64 0 80 3 80 15 0 12 -13 15
-56 15 l-56 0 34 41 c74 90 85 132 48 169 -23 23 -87 27 -115 7z"/>
<path d="M1520 9095 c0 -12 14 -15 64 -15 l64 0 -49 -110 c-27 -60 -49 -112
-49 -115 0 -3 8 -5 18 -5 14 0 31 30 69 122 28 67 49 126 47 130 -3 5 -41 8
-85 8 -64 0 -79 -3 -79 -15z"/>
<path d="M1757 9092 c-56 -62 -46 -222 16 -237 42 -11 79 -1 100 26 37 50 35
171 -4 210 -25 25 -90 26 -112 1z m93 -31 c5 -11 10 -47 10 -81 0 -77 -12
-100 -50 -100 -38 0 -50 23 -50 100 0 77 12 100 50 100 19 0 33 -7 40 -19z"/>
<path d="M1967 9092 c-56 -62 -46 -222 16 -237 42 -11 79 -1 100 26 37 50 35
171 -4 210 -25 25 -90 26 -112 1z m93 -31 c5 -11 10 -47 10 -81 0 -77 -12
-100 -50 -100 -38 0 -50 23 -50 100 0 77 12 100 50 100 19 0 33 -7 40 -19z"/>
<path d="M2177 9092 c-56 -62 -46 -222 16 -237 42 -11 79 -1 100 26 37 50 35
171 -4 210 -25 25 -90 26 -112 1z m93 -31 c5 -11 10 -47 10 -81 0 -77 -12
-100 -50 -100 -38 0 -50 23 -50 100 0 77 12 100 50 100 19 0 33 -7 40 -19z"/>
<path d="M18992 8687 l-52 -53 53 -52 53 -52 52 53 52 53 -53 52 -53 52 -52
-53z"/>
<path d="M1343 8195 c-48 -21 -40 -33 20 -31 l52 1 3 -36 c3 -33 -3 -44 -54
-98 -73 -80 -69 -93 28 -89 46 2 73 7 76 16 3 9 -12 12 -52 12 -31 0 -56 4
-56 8 0 4 16 23 35 42 61 59 80 120 48 158 -24 28 -61 35 -100 17z"/>
<path d="M1773 8198 c-56 -27 -70 -183 -22 -234 24 -26 67 -31 101 -13 67 36
62 223 -7 249 -32 12 -43 12 -72 -2z m69 -35 c14 -13 18 -31 18 -89 0 -78 -13
-104 -52 -104 -33 0 -47 29 -48 100 0 96 35 136 82 93z"/>
<path d="M1983 8198 c-56 -27 -70 -183 -22 -234 24 -26 67 -31 101 -13 67 36
62 223 -7 249 -32 12 -43 12 -72 -2z m69 -35 c14 -13 18 -31 18 -89 0 -78 -13
-104 -52 -104 -33 0 -47 29 -48 100 0 96 35 136 82 93z"/>
<path d="M2193 8198 c-56 -27 -70 -183 -22 -234 24 -26 67 -31 101 -13 67 36
62 223 -7 249 -32 12 -43 12 -72 -2z m69 -35 c14 -13 18 -31 18 -89 0 -78 -13
-104 -52 -104 -33 0 -47 29 -48 100 0 96 35 136 82 93z"/>
<path d="M1530 8135 l0 -65 43 0 c50 0 67 -13 67 -52 0 -35 -30 -52 -81 -45
-28 4 -39 1 -39 -8 0 -17 23 -25 67 -25 43 0 93 45 93 85 0 38 -41 75 -85 75
-33 0 -35 2 -35 35 l0 35 50 0 c38 0 50 4 50 15 0 12 -14 15 -65 15 l-65 0 0
-65z"/>
<path d="M16472 8047 l-52 -53 53 -52 53 -52 52 53 52 53 -53 52 -53 52 -52
-53z"/>
<path d="M1344 7290 c-22 -9 -39 -28 -32 -35 2 -3 20 1 41 7 96 30 86 -77 -17
-171 -45 -42 -35 -51 55 -51 60 0 80 3 77 13 -3 6 -28 14 -57 17 l-53 5 22 20
c36 32 80 106 80 136 0 50 -61 81 -116 59z"/>
<path d="M1539 7281 c-31 -25 -21 -34 19 -19 38 15 65 3 70 -30 4 -24 -32 -52
-66 -52 -37 0 -21 -25 19 -28 43 -4 59 -18 59 -48 0 -34 -41 -52 -83 -36 -34
13 -42 10 -34 -12 8 -21 61 -29 101 -16 57 19 73 95 24 121 -17 9 -18 12 -4
22 8 7 18 24 21 39 5 21 1 33 -19 52 -30 31 -74 34 -107 7z"/>
<path d="M1772 7290 c-47 -19 -68 -133 -38 -205 19 -44 54 -61 98 -49 49 14
70 61 66 148 -3 60 -7 71 -31 92 -29 25 -57 29 -95 14z m72 -36 c23 -22 22
-150 -1 -176 -20 -22 -41 -23 -65 -1 -24 21 -26 138 -2 171 18 26 46 28 68 6z"/>
<path d="M1982 7290 c-47 -19 -68 -133 -38 -205 19 -44 54 -61 98 -49 49 14
70 61 66 148 -3 60 -7 71 -31 92 -29 25 -57 29 -95 14z m72 -36 c23 -22 22
-150 -1 -176 -20 -22 -41 -23 -65 -1 -24 21 -26 138 -2 171 18 26 46 28 68 6z"/>
<path d="M2192 7290 c-47 -19 -68 -133 -38 -205 19 -44 54 -61 98 -49 49 14
70 61 66 148 -3 60 -7 71 -31 92 -29 25 -57 29 -95 14z m72 -36 c23 -22 22
-150 -1 -176 -20 -22 -41 -23 -65 -1 -24 21 -26 138 -2 171 18 26 46 28 68 6z"/>
<path d="M13962 7227 l-52 -53 53 -52 53 -52 52 53 52 53 -53 52 -53 52 -52
-53z"/>
<path d="M853 7215 c-40 -17 -53 -57 -31 -95 14 -24 14 -28 0 -37 -35 -22 0
-33 104 -33 97 0 104 1 104 20 0 18 -7 20 -74 20 -69 0 -76 2 -95 27 -19 23
-20 29 -7 47 11 18 25 21 95 24 73 3 81 5 81 22 0 18 -7 20 -72 20 -40 -1 -87
-7 -105 -15z"/>
<path d="M861 6986 c-47 -26 -63 -84 -37 -135 33 -63 149 -70 193 -12 15 20
17 85 3 112 -24 43 -109 63 -159 35z m117 -42 c26 -18 29 -60 5 -86 -19 -21
-90 -25 -116 -5 -28 21 -32 62 -8 86 25 25 86 28 119 5z"/>
<path d="M730 6720 c0 -16 5 -21 23 -18 12 2 22 10 22 18 0 8 -10 16 -22 18
-18 3 -23 -2 -23 -18z"/>
<path d="M815 6730 c-14 -23 11 -30 111 -30 97 0 104 1 104 20 0 19 -7 20
-104 20 -59 0 -108 -4 -111 -10z"/>
<path d="M817 6654 c-4 -4 -7 -18 -7 -31 0 -18 -5 -23 -25 -23 -18 0 -25 -5
-25 -20 0 -14 7 -20 24 -20 13 0 26 -7 30 -15 7 -19 36 -20 36 -1 0 10 20 15
80 18 89 4 102 12 98 62 -4 39 -26 45 -30 9 -3 -27 -4 -28 -75 -31 -71 -3 -72
-3 -75 24 -3 27 -18 41 -31 28z"/>
<path d="M861 6477 c-44 -15 -58 -53 -42 -108 7 -24 18 -39 27 -39 11 0 14 5
9 18 -16 42 -16 69 0 85 27 27 44 20 50 -20 3 -21 11 -49 18 -63 16 -31 61
-39 88 -14 20 18 25 69 9 94 -6 9 -5 17 2 21 6 4 8 14 5 23 -8 20 -113 22
-166 3z m129 -48 c16 -29 8 -63 -14 -67 -25 -5 -46 23 -46 60 0 23 4 28 25 28
14 0 29 -8 35 -21z"/>
<path d="M1332 6374 c-29 -20 -19 -37 13 -22 13 6 35 8 49 4 22 -5 26 -12 26
-41 0 -28 -11 -48 -55 -100 -30 -35 -55 -69 -55 -75 0 -6 32 -10 80 -10 64 0
80 3 80 15 0 12 -13 15 -57 15 l-57 0 26 28 c45 47 78 104 78 133 0 59 -75 90
-128 53z"/>
<path d="M1563 6367 c-18 -12 -33 -28 -33 -34 0 -17 6 -16 35 3 l25 16 0 -95
0 -96 -27 -3 c-14 -2 -28 -9 -31 -15 -3 -10 16 -13 72 -13 61 0 76 3 76 15 0
9 -9 15 -25 15 l-25 0 0 115 c0 129 -4 135 -67 92z"/>
<path d="M1767 6379 c-45 -26 -62 -145 -29 -208 28 -56 97 -61 135 -9 37 49
35 170 -4 209 -21 21 -73 25 -102 8z m83 -38 c5 -11 10 -49 10 -85 0 -53 -4
-70 -20 -86 -11 -11 -24 -20 -30 -20 -5 0 -19 9 -30 20 -16 16 -20 33 -20 85
0 36 6 74 12 85 17 26 64 27 78 1z"/>
<path d="M1977 6379 c-45 -26 -62 -145 -29 -208 28 -56 97 -61 135 -9 37 49
35 170 -4 209 -21 21 -73 25 -102 8z m83 -38 c5 -11 10 -49 10 -85 0 -53 -4
-70 -20 -86 -11 -11 -24 -20 -30 -20 -5 0 -19 9 -30 20 -16 16 -20 33 -20 85
0 36 6 74 12 85 17 26 64 27 78 1z"/>
<path d="M2187 6379 c-45 -26 -62 -145 -29 -208 28 -56 97 -61 135 -9 37 49
35 170 -4 209 -21 21 -73 25 -102 8z m83 -38 c5 -11 10 -49 10 -85 0 -53 -4
-70 -20 -86 -11 -11 -24 -20 -30 -20 -5 0 -19 9 -30 20 -16 16 -20 33 -20 85
0 36 6 74 12 85 17 26 64 27 78 1z"/>
<path d="M720 6240 c0 -19 7 -20 155 -20 148 0 155 1 155 20 0 19 -7 20 -155
20 -148 0 -155 -1 -155 -20z"/>
<path d="M820 6150 c0 -5 0 -13 0 -17 0 -5 35 -10 77 -13 72 -5 78 -7 93 -32
26 -48 7 -62 -91 -68 -66 -4 -84 -8 -84 -20 0 -12 16 -16 70 -18 80 -3 107 2
129 24 21 20 20 73 -1 96 -15 17 -15 18 1 18 11 0 16 6 14 18 -3 15 -17 17
-106 20 -65 2 -102 -1 -102 -8z"/>
<path d="M853 5911 c-40 -25 -52 -65 -31 -101 14 -24 14 -28 0 -37 -9 -5 -12
-15 -8 -21 5 -8 51 -12 152 -12 137 0 144 1 144 20 0 17 -7 20 -50 20 -48 0
-50 1 -40 20 18 34 8 81 -21 103 -40 29 -107 33 -146 8z m125 -37 c49 -34 15
-94 -54 -94 -34 0 -47 5 -62 25 -24 30 -18 63 12 75 34 14 80 11 104 -6z"/>
<path d="M861 5676 c-47 -26 -63 -84 -37 -135 33 -63 149 -70 193 -12 15 20
17 85 3 112 -24 43 -109 63 -159 35z m117 -42 c26 -18 29 -60 5 -86 -19 -21
-90 -25 -116 -5 -28 21 -32 62 -8 86 25 25 86 28 119 5z"/>
<path d="M1791 5480 c-51 -12 -80 -86 -67 -173 8 -55 37 -87 77 -87 65 0 99
48 99 137 0 89 -45 139 -109 123z m59 -49 c5 -11 10 -47 10 -81 0 -77 -12
-100 -50 -100 -38 0 -50 23 -50 100 0 77 12 100 50 100 19 0 33 -7 40 -19z"/>
<path d="M2001 5480 c-51 -12 -80 -86 -67 -173 8 -55 37 -87 77 -87 65 0 99
48 99 137 0 89 -45 139 -109 123z m59 -49 c5 -11 10 -47 10 -81 0 -77 -12
-100 -50 -100 -38 0 -50 23 -50 100 0 77 12 100 50 100 19 0 33 -7 40 -19z"/>
<path d="M2211 5480 c-51 -12 -80 -86 -67 -173 8 -55 37 -87 77 -87 65 0 99
48 99 137 0 89 -45 139 -109 123z m59 -49 c5 -11 10 -47 10 -81 0 -77 -12
-100 -50 -100 -38 0 -50 23 -50 100 0 77 12 100 50 100 19 0 33 -7 40 -19z"/>
<path d="M1353 5459 c-18 -12 -33 -25 -33 -30 0 -12 27 -11 35 1 17 28 25 1
25 -85 l0 -95 -31 0 c-20 0 -29 -4 -27 -12 3 -9 30 -14 76 -16 60 -2 72 0 72
13 0 9 -9 15 -25 15 l-25 0 0 115 c0 129 -4 135 -67 94z"/>
<path d="M1540 5460 c-63 -63 -12 -152 78 -135 32 6 33 5 27 -17 -13 -42 -35
-58 -82 -58 -53 0 -56 -23 -4 -28 79 -8 121 42 121 146 0 79 -24 112 -81 112
-25 0 -46 -7 -59 -20z m104 -48 c11 -39 -5 -62 -43 -62 -34 0 -51 17 -51 51 0
62 77 70 94 11z"/>
<path d="M803 5442 c-40 -6 -63 -48 -63 -113 l0 -59 146 0 c133 0 145 1 142
18 -2 13 -15 18 -54 20 l-51 3 -6 40 c-9 65 -53 100 -114 91z m66 -55 c6 -8
14 -28 17 -45 l7 -32 -62 0 c-61 0 -61 0 -61 29 0 16 7 37 16 45 19 20 68 21
83 3z"/>
<path d="M1357 4555 c-38 -26 -51 -53 -19 -40 9 4 23 9 30 12 9 4 12 -18 12
-91 l0 -96 -31 0 c-20 0 -29 -4 -26 -12 2 -9 26 -13 72 -13 46 0 70 4 73 13 2
7 -6 12 -22 12 l-25 0 -3 117 c-2 67 -7 118 -13 120 -6 2 -27 -8 -48 -22z"/>
<path d="M1527 4573 c-4 -3 -7 -12 -7 -20 0 -9 17 -13 60 -13 33 0 60 -4 60
-8 0 -5 -21 -55 -46 -111 -45 -101 -49 -119 -21 -108 22 8 118 239 105 254
-11 14 -139 19 -151 6z"/>
<path d="M1774 4568 c-35 -17 -49 -55 -49 -135 0 -69 2 -76 28 -99 71 -61 147
-4 147 111 0 102 -57 157 -126 123z m68 -35 c24 -22 26 -153 2 -177 -44 -44
-84 -1 -84 91 0 50 4 67 20 83 24 24 38 25 62 3z"/>
<path d="M1984 4568 c-35 -17 -49 -55 -49 -135 0 -69 2 -76 28 -99 71 -61 147
-4 147 111 0 102 -57 157 -126 123z m68 -35 c24 -22 26 -153 2 -177 -44 -44
-84 -1 -84 91 0 50 4 67 20 83 24 24 38 25 62 3z"/>
<path d="M2194 4568 c-35 -17 -49 -55 -49 -135 0 -69 2 -76 28 -99 71 -61 147
-4 147 111 0 102 -57 157 -126 123z m68 -35 c24 -22 26 -153 2 -177 -44 -44
-84 -1 -84 91 0 50 4 67 20 83 24 24 38 25 62 3z"/>
<path d="M1358 3648 c-21 -12 -38 -28 -38 -35 0 -17 11 -16 38 3 l22 15 0 -95
0 -95 -27 -3 c-14 -2 -28 -9 -31 -15 -3 -10 16 -13 73 -13 57 0 76 3 73 13 -3
6 -14 13 -26 15 -21 3 -22 8 -22 118 0 127 -1 128 -62 92z"/>
<path d="M1534 3656 c-3 -7 -4 -37 -2 -66 l3 -52 42 -3 c55 -4 63 -10 63 -45
0 -43 -39 -67 -86 -52 -28 8 -34 8 -34 -4 0 -43 113 -36 145 9 37 53 7 110
-65 122 -39 7 -41 9 -38 38 3 30 5 32 51 35 33 2 47 7 47 18 0 20 -118 20
-126 0z"/>
<path d="M1767 3659 c-70 -41 -58 -228 16 -252 73 -24 121 41 115 152 -4 55
-8 67 -32 87 -29 25 -69 30 -99 13z m83 -38 c17 -33 13 -152 -7 -173 -21 -23
-38 -23 -63 2 -27 27 -29 144 -3 172 21 24 60 23 73 -1z"/>
<path d="M1977 3659 c-70 -41 -58 -228 16 -252 73 -24 121 41 115 152 -4 55
-8 67 -32 87 -29 25 -69 30 -99 13z m83 -38 c17 -33 13 -152 -7 -173 -21 -23
-38 -23 -63 2 -27 27 -29 144 -3 172 21 24 60 23 73 -1z"/>
<path d="M2187 3659 c-70 -41 -58 -228 16 -252 73 -24 121 41 115 152 -4 55
-8 67 -32 87 -29 25 -69 30 -99 13z m83 -38 c17 -33 13 -152 -7 -173 -21 -23
-38 -23 -63 2 -27 27 -29 144 -3 172 21 24 60 23 73 -1z"/>
<path d="M6358 3124 c-55 -29 -64 -97 -22 -160 58 -86 122 -108 169 -58 34 37
33 78 -4 115 -38 38 -65 37 -107 -5 -32 -32 -35 -33 -44 -16 -6 10 -10 33 -10
50 0 24 7 35 30 48 47 27 36 51 -12 26z m132 -145 c26 -48 -27 -87 -75 -55
-32 21 -32 49 1 75 29 23 55 16 74 -20z"/>
<path d="M13879 3112 c-45 -40 -46 -93 -4 -153 59 -84 116 -103 163 -56 64 64
-7 178 -85 136 -13 -7 -30 -24 -37 -37 -10 -19 -14 -21 -23 -10 -6 7 -14 25
-18 40 -6 22 -1 33 25 59 43 43 24 61 -21 21z m147 -139 c14 -56 -35 -80 -81
-40 -24 20 -26 26 -16 46 26 48 85 44 97 -6z"/>
<path d="M18882 3092 c-23 -20 -42 -41 -42 -47 1 -16 69 -85 84 -85 7 0 21 9
31 20 27 29 73 26 87 -6 14 -31 5 -51 -40 -79 -37 -23 -40 -35 -11 -35 12 0
36 15 55 34 42 42 46 85 9 121 -30 31 -64 32 -99 4 l-27 -21 -25 23 -24 23 35
36 c19 20 32 39 29 43 -11 11 -17 8 -62 -31z"/>
<path d="M11353 3100 c-33 -20 -51 -59 -38 -80 5 -8 13 -1 22 19 20 41 51 50
74 22 15 -18 16 -27 7 -47 -6 -13 -15 -24 -20 -24 -4 0 -8 -7 -8 -15 0 -19 2
-19 45 6 33 20 37 20 60 5 14 -9 25 -21 25 -27 0 -24 -24 -52 -57 -66 -25 -10
-33 -17 -25 -25 8 -8 19 -7 41 1 39 17 59 40 67 78 8 41 -34 88 -70 79 -20 -5
-23 -2 -23 25 0 55 -50 80 -100 49z"/>
<path d="M3810 3085 c-18 -48 -22 -73 -11 -79 6 -4 16 7 23 25 l13 31 63 -73
c61 -73 61 -74 42 -91 -21 -17 -27 -38 -10 -38 6 0 32 19 58 42 26 24 49 43
51 45 1 1 0 6 -4 12 -4 7 -14 6 -29 -4 -22 -14 -25 -12 -95 70 -41 47 -77 85
-82 85 -5 0 -14 -11 -19 -25z"/>
<path d="M8840 3095 c-13 -16 -27 -95 -16 -95 4 0 13 14 20 31 l13 30 63 -71
63 -71 -22 -23 c-15 -15 -19 -26 -12 -31 13 -8 111 73 111 92 0 17 -10 17 -31
-2 -15 -15 -22 -9 -90 69 -41 46 -77 85 -80 85 -4 1 -12 -6 -19 -14z"/>
<path d="M16370 3085 c-18 -47 -22 -73 -12 -79 6 -3 15 9 22 27 l11 32 35 -40
c19 -22 48 -57 65 -77 30 -37 30 -37 10 -50 -22 -13 -29 -38 -11 -38 6 0 32
19 58 42 26 24 49 43 51 45 1 1 0 6 -4 12 -4 7 -14 6 -29 -4 -22 -14 -25 -12
-95 70 -41 47 -77 85 -82 85 -5 0 -14 -11 -19 -25z"/>
<path d="M8669 2951 c-28 -29 -40 -71 -19 -71 6 0 16 11 22 25 16 36 56 44 80
15 14 -18 18 -40 18 -111 0 -48 4 -90 9 -93 12 -8 132 94 125 105 -9 15 -19
10 -62 -27 l-42 -36 0 82 c0 77 -2 83 -29 111 -16 16 -39 29 -51 29 -12 0 -35
-13 -51 -29z"/>
<path d="M11205 2968 c-28 -15 -55 -50 -55 -70 0 -26 13 -22 38 12 26 35 52
38 78 9 15 -17 19 -37 19 -103 0 -44 4 -87 8 -94 6 -9 25 2 68 40 39 34 56 55
50 61 -7 7 -26 -3 -57 -28 l-46 -38 7 50 c8 65 -8 126 -42 152 -29 24 -40 25
-68 9z"/>
<path d="M13694 2946 c-36 -36 -44 -66 -19 -66 8 0 15 6 15 13 0 25 37 50 64
43 34 -8 50 -62 43 -142 -9 -91 5 -96 78 -30 40 36 55 55 47 60 -8 5 -27 -5
-50 -25 l-37 -33 -6 75 c-7 81 -20 112 -56 128 -35 16 -42 14 -79 -23z"/>
<path d="M16203 2945 c-33 -33 -39 -55 -17 -62 5 -2 14 7 19 19 15 32 41 45
63 32 26 -17 27 -53 1 -80 -25 -26 -18 -46 9 -26 59 42 94 39 100 -10 3 -27
-36 -68 -65 -68 -8 0 -13 -6 -10 -12 7 -20 49 -10 79 19 53 51 23 143 -41 130
-25 -5 -27 -4 -23 22 3 20 -3 35 -19 50 -32 30 -56 26 -96 -14z"/>
<path d="M18721 2953 c-31 -29 -44 -63 -26 -69 6 -2 18 10 27 26 18 31 45 39
66 18 18 -18 14 -53 -8 -73 -31 -28 -8 -43 26 -16 44 34 84 22 84 -25 0 -24
-42 -64 -67 -64 -19 0 -11 -24 10 -28 21 -4 85 56 92 88 9 39 -29 83 -66 78
-26 -4 -29 -2 -29 24 0 33 -31 68 -60 68 -11 0 -33 -12 -49 -27z"/>
<path d="M3651 2947 c-15 -38 -17 -70 -5 -74 5 -2 14 9 20 23 9 27 9 27 73
-46 l65 -73 -24 -19 c-16 -13 -20 -22 -13 -29 7 -7 27 6 64 39 52 49 63 80 17
50 -22 -14 -25 -12 -93 68 -38 45 -76 83 -83 83 -7 1 -16 -9 -21 -22z"/>
<path d="M6161 2939 c-13 -39 -14 -69 -2 -69 5 0 12 12 15 26 8 31 14 28 88
-58 l51 -59 -22 -23 c-13 -14 -18 -26 -13 -30 12 -7 105 70 110 90 4 16 -14
19 -23 4 -13 -22 -35 -7 -100 68 -38 42 -74 78 -80 80 -7 2 -18 -11 -24 -29z"/>
<path d="M3530 2843 c-65 -23 -79 -94 -31 -160 63 -88 129 -107 176 -51 32 38
29 72 -12 131 -40 58 -97 93 -133 80z m76 -70 c20 -21 43 -51 51 -66 13 -25
13 -31 -2 -53 -28 -42 -72 -25 -126 49 -66 91 -2 150 77 70z"/>
<path d="M6034 2840 c-29 -11 -54 -49 -54 -80 0 -34 49 -111 88 -138 42 -31
82 -28 115 6 36 37 34 69 -5 128 -49 72 -100 102 -144 84z m93 -75 c51 -54 63
-88 38 -115 -22 -24 -38 -25 -70 -4 -34 22 -85 94 -85 119 0 60 59 60 117 0z"/>
<path d="M8533 2830 c-54 -33 -56 -87 -6 -152 60 -78 124 -98 168 -53 36 35
33 83 -8 137 -33 42 -90 88 -111 88 -6 0 -26 -9 -43 -20z m86 -45 c72 -62 90
-137 34 -151 -22 -6 -33 0 -74 43 -52 55 -69 94 -49 118 19 22 55 18 89 -10z"/>
<path d="M11052 2837 c-70 -39 -66 -103 12 -183 42 -43 58 -54 85 -54 44 0 81
38 81 84 0 40 -47 108 -99 143 -39 26 -47 27 -79 10z m83 -58 c40 -35 65 -77
65 -108 0 -19 -26 -41 -49 -41 -19 0 -94 74 -108 107 -16 40 -16 38 3 57 23
24 49 19 89 -15z"/>
<path d="M13552 2825 c-17 -14 -34 -35 -37 -46 -16 -50 87 -179 143 -179 35 0
70 25 83 57 13 34 -17 97 -67 145 -54 51 -83 56 -122 23z m112 -65 c52 -56 62
-101 26 -120 -30 -16 -54 -5 -100 47 -41 47 -51 88 -28 111 24 24 55 12 102
-38z"/>
<path d="M16090 2843 c-8 -3 -25 -15 -37 -26 -35 -32 -31 -84 11 -139 66 -86
124 -102 171 -46 32 38 29 72 -12 131 -40 58 -97 93 -133 80z m76 -70 c20 -21
43 -51 51 -66 13 -25 13 -31 -2 -53 -28 -42 -72 -25 -126 49 -66 91 -2 150 77
70z"/>
<path d="M18594 2840 c-29 -11 -54 -49 -54 -80 0 -34 49 -111 88 -138 42 -31
82 -28 115 6 36 37 34 69 -5 128 -49 72 -100 102 -144 84z m92 -75 c50 -55 62
-90 38 -116 -21 -23 -37 -24 -69 -3 -34 22 -85 94 -85 119 0 60 60 60 116 0z"/>
<path d="M3327 2672 c-15 -15 -27 -38 -27 -50 0 -28 17 -29 25 -2 8 26 48 52
68 44 24 -9 31 -32 37 -128 3 -49 10 -91 15 -93 18 -6 120 92 111 105 -5 9
-20 2 -49 -25 l-42 -38 -3 65 c-3 85 -8 106 -32 130 -29 29 -71 25 -103 -8z"/>
<path d="M5836 2669 c-27 -32 -33 -54 -16 -64 6 -3 14 5 20 19 12 33 44 50 69
37 27 -15 31 -32 31 -126 0 -46 4 -87 10 -90 12 -7 31 6 90 58 31 29 39 42 31
50 -8 8 -21 1 -49 -26 -21 -20 -41 -37 -44 -37 -3 0 -6 30 -5 68 1 71 -18 124
-48 136 -35 13 -64 5 -89 -25z"/>
<path d="M8350 2671 c-30 -30 -38 -55 -20 -66 5 -3 16 7 24 23 17 32 44 44 69
31 26 -15 40 -75 32 -144 -10 -93 4 -94 100 -11 28 25 37 38 29 46 -7 7 -22 0
-51 -25 -23 -19 -43 -35 -45 -35 -1 0 -3 33 -3 74 0 60 -4 80 -21 103 -31 41
-76 43 -114 4z"/>
<path d="M10877 2689 c-21 -13 -50 -66 -42 -79 10 -16 19 -12 30 12 6 11 19
27 31 35 18 12 24 11 45 -6 22 -17 24 -28 26 -108 1 -48 3 -91 3 -95 0 -19 29
-4 79 41 33 30 51 53 47 60 -6 8 -21 1 -51 -23 l-43 -36 -4 75 c-2 55 -9 81
-24 102 -23 30 -66 40 -97 22z"/>
<path d="M13384 2682 c-27 -21 -47 -59 -39 -72 10 -16 23 -11 30 10 4 11 18
28 32 37 25 16 26 16 49 -11 21 -24 24 -37 24 -117 0 -65 3 -89 13 -89 21 1
121 96 113 108 -5 9 -21 1 -51 -23 l-43 -36 -3 80 c-4 67 -8 83 -28 105 -28
30 -66 33 -97 8z"/>
<path d="M15887 2672 c-15 -15 -27 -38 -27 -50 0 -28 17 -29 25 -2 8 26 48 52
68 44 24 -9 31 -32 37 -128 3 -49 10 -91 15 -93 18 -6 120 92 111 105 -5 9
-20 2 -49 -25 l-42 -38 -3 65 c-3 85 -8 106 -32 130 -29 29 -71 25 -103 -8z"/>
<path d="M18396 2669 c-27 -32 -33 -54 -16 -64 6 -3 10 -1 10 5 0 14 46 60 60
60 5 0 19 -9 30 -20 17 -17 20 -33 20 -109 0 -50 4 -93 10 -96 12 -7 31 6 90
58 31 29 39 42 31 50 -8 8 -21 1 -49 -26 -21 -20 -41 -37 -44 -37 -4 0 -6 30
-6 68 1 71 -17 124 -47 136 -35 13 -64 5 -89 -25z"/>
<path d="M11100 2040 c0 -6 17 -43 37 -83 28 -53 39 -89 43 -137 4 -49 9 -65
20 -65 11 0 16 16 20 65 4 48 15 84 43 137 41 81 44 93 21 93 -9 0 -28 -28
-49 -72 l-33 -72 -34 69 c-19 41 -40 71 -50 73 -10 2 -18 -1 -18 -8z"/>
<path d="M11377 1959 c-9 -5 -24 -23 -32 -39 -35 -68 -4 -154 60 -166 42 -7
96 5 103 24 3 10 -8 11 -46 6 -43 -5 -53 -3 -71 15 -38 38 -28 51 43 51 70 0
89 12 79 51 -10 42 -43 69 -82 69 -20 0 -44 -5 -54 -11z m87 -35 c31 -31 20
-44 -39 -44 -41 0 -55 4 -55 14 0 22 29 46 55 46 13 0 31 -7 39 -16z"/>
<path d="M11588 1959 c-10 -5 -18 -17 -18 -26 0 -11 5 -13 18 -8 56 25 102 13
102 -26 0 -14 -7 -19 -29 -19 -45 0 -80 -17 -93 -45 -24 -54 32 -102 89 -76
19 9 29 9 40 0 26 -22 35 5 32 89 -5 98 -21 122 -83 122 -23 0 -49 -5 -58 -11z
m102 -127 c0 -45 -80 -71 -88 -29 -5 28 17 47 54 47 26 0 34 -4 34 -18z"/>
<path d="M11794 1957 c-3 -8 -3 -56 -2 -108 2 -76 6 -94 18 -94 12 0 16 16 18
70 3 76 29 121 64 112 13 -4 18 1 18 14 0 23 -41 26 -63 4 -13 -13 -16 -13
-21 0 -7 19 -25 19 -32 2z"/>
<path d="M10480 783 c0 -44 -3 -54 -12 -45 -22 22 -75 14 -97 -14 -29 -36 -29
-116 -1 -144 22 -22 60 -26 91 -10 13 7 19 7 19 0 0 -5 7 -10 15 -10 13 0 15
22 15 140 0 118 -2 140 -15 140 -12 0 -15 -13 -15 -57z m-12 -75 c17 -17 15
-78 -5 -100 -36 -39 -83 -13 -83 47 0 42 17 65 48 65 16 0 33 -5 40 -12z"/>
<path d="M12970 700 c0 -118 2 -140 15 -140 13 0 15 22 15 140 0 118 -2 140
-15 140 -13 0 -15 -22 -15 -140z"/>
<path d="M9537 824 c-14 -15 -6 -34 14 -34 14 0 19 5 17 17 -3 18 -20 27 -31
17z"/>
<path d="M8967 813 c-4 -3 -7 -62 -7 -130 0 -116 1 -123 20 -123 17 0 20 7 20
50 0 47 2 50 25 50 83 0 125 81 70 135 -19 20 -34 25 -73 25 -27 0 -52 -3 -55
-7z m101 -35 c7 -7 12 -24 12 -38 0 -34 -17 -50 -52 -50 -27 0 -28 2 -28 50 0
48 1 50 28 50 15 0 33 -5 40 -12z"/>
<path d="M12060 816 c0 -2 -20 -60 -45 -130 -40 -113 -43 -126 -26 -126 12 0
21 11 27 33 9 31 12 32 65 35 54 3 55 3 67 -33 12 -32 42 -50 42 -24 0 6 -19
65 -42 130 -38 104 -46 119 -65 119 -13 0 -23 -2 -23 -4z m59 -143 c1 -9 -13
-13 -39 -13 -22 0 -40 2 -40 5 0 2 10 30 22 62 l21 58 18 -50 c10 -28 18 -56
18 -62z"/>
<path d="M10017 793 c-4 -3 -7 -15 -7 -25 0 -10 -7 -18 -15 -18 -19 0 -20 -16
-1 -27 8 -5 15 -34 19 -71 6 -73 18 -92 58 -92 35 0 40 27 7 32 -21 3 -23 9
-26 66 -3 61 -2 62 23 62 16 0 25 6 25 15 0 9 -9 15 -25 15 -20 0 -25 5 -25
25 0 24 -18 34 -33 18z"/>
<path d="M12417 793 c-4 -3 -7 -15 -7 -25 0 -10 -7 -18 -15 -18 -19 0 -20 -16
-1 -27 8 -5 15 -34 19 -77 5 -73 14 -86 60 -86 17 0 27 5 27 15 0 9 -9 15 -25
15 -24 0 -25 2 -25 65 0 63 1 65 25 65 16 0 25 6 25 15 0 9 -9 15 -25 15 -20
0 -25 5 -25 25 0 24 -18 34 -33 18z"/>
<path d="M8352 717 l-42 -43 43 -42 43 -42 42 43 42 43 -43 42 -43 42 -42 -43z"/>
<path d="M9170 655 c0 -78 3 -95 15 -95 12 0 15 14 15 63 0 67 17 97 53 97 9
0 17 7 17 15 0 18 -41 20 -58 3 -9 -9 -12 -9 -12 0 0 7 -7 12 -15 12 -12 0
-15 -17 -15 -95z"/>
<path d="M9331 724 c-30 -38 -29 -113 2 -142 28 -26 82 -29 115 -7 42 30 46
130 5 160 -10 8 -37 15 -60 15 -33 0 -46 -5 -62 -26z m107 -22 c15 -19 16 -66
2 -93 -7 -13 -21 -19 -45 -19 -39 0 -55 20 -55 67 0 63 61 90 98 45z"/>
<path d="M9530 635 c0 -108 -1 -115 -20 -115 -11 0 -20 -7 -20 -15 0 -18 41
-20 58 -3 8 8 12 52 12 130 0 98 -3 118 -15 118 -12 0 -15 -19 -15 -115z"/>
<path d="M9641 724 c-28 -36 -28 -102 0 -138 19 -24 27 -27 73 -24 38 2 52 7
54 20 3 15 -1 16 -28 8 -49 -14 -90 9 -90 51 0 5 29 9 65 9 l65 0 0 30 c0 68
-96 98 -139 44z m91 -11 c33 -29 22 -43 -32 -43 -56 0 -67 17 -28 44 28 20 37
20 60 -1z"/>
<path d="M9853 728 c-33 -36 -34 -117 -3 -148 22 -22 70 -26 101 -10 33 18 22
31 -23 24 -48 -8 -68 10 -68 61 0 51 20 69 68 61 23 -3 42 -3 42 2 0 37 -85
44 -117 10z"/>
<path d="M10161 724 c-28 -36 -28 -102 0 -138 19 -24 27 -27 73 -24 38 2 52 7
54 20 3 15 -1 16 -28 8 -49 -14 -90 9 -90 51 0 5 29 9 65 9 l65 0 0 30 c0 68
-96 98 -139 44z m91 -11 c33 -29 22 -43 -32 -43 -56 0 -67 17 -28 44 28 20 37
20 60 -1z"/>
<path d="M12258 740 c-27 -17 -41 -73 -28 -119 12 -45 33 -61 79 -61 32 0 65
25 55 42 -4 6 -10 6 -17 -1 -18 -18 -65 -13 -77 8 -14 27 -13 74 4 96 10 14
21 17 50 12 31 -5 37 -3 34 11 -4 20 -73 28 -100 12z"/>
<path d="M12547 743 c-11 -10 -8 -93 4 -135 11 -44 44 -58 91 -40 16 6 28 6
28 1 0 -5 7 -9 15 -9 12 0 15 17 15 95 0 78 -3 95 -15 95 -12 0 -15 -14 -15
-63 0 -71 -19 -101 -62 -95 -22 3 -23 8 -26 81 -2 55 -7 77 -16 77 -7 0 -16
-3 -19 -7z"/>
<path d="M12774 736 c-26 -20 -14 -28 24 -15 37 13 72 -2 72 -31 0 -16 -7 -20
-31 -20 -64 0 -102 -44 -74 -86 17 -27 71 -34 93 -12 9 9 12 9 12 0 0 -7 7
-12 15 -12 22 0 22 152 -1 174 -19 20 -84 21 -110 2z m96 -106 c0 -24 -41 -53
-64 -44 -21 8 -21 40 2 53 30 18 62 13 62 -9z"/>
</g>
</svg>
